<svg width="92" height="24" viewBox="0 0 92 24" fill="none" xmlns="http://www.w3.org/2000/svg">
<path d="M0 0C11.5169 0 11.5169 0 13.1867 1.57475C13.2754 1.66161 13.3624 1.7501 13.4494 1.83868C13.4955 1.88473 13.5416 1.93078 13.5891 1.97823C13.9579 2.3665 14.3075 2.81646 14.3908 3.34903C14.3548 3.34183 14.3187 3.33464 14.2815 3.32723C13.9135 3.25452 13.545 3.18408 13.1762 3.11509C13.0894 3.09875 13.0026 3.08242 12.9132 3.06558C10.4299 2.63401 7.8326 3.21151 5.77141 4.6103C4.79399 5.31303 3.99379 6.14561 3.36234 7.15773C3.32481 7.21707 3.32481 7.21707 3.28653 7.27762C2.03252 9.29637 1.77954 11.8803 2.32579 14.1509C2.89771 16.3762 4.26127 18.2761 6.25396 19.5032C7.3142 20.122 8.53327 20.5036 9.75079 20.6852C9.82682 20.6972 9.90284 20.7092 9.98116 20.7216C10.4368 20.7749 10.898 20.7668 11.3563 20.7673C11.4058 20.7674 11.4554 20.7674 11.5064 20.7675C12.2621 20.7672 12.981 20.7221 13.7184 20.5538C13.8071 20.5348 13.8959 20.5158 13.9847 20.4969C14.188 20.4525 14.3904 20.406 14.5926 20.3568C14.2715 21.4316 13.2285 22.406 12.2515 22.9438C8.76986 24.6562 2.78322 23.7715 0 23.7715C0 15.9269 0 8.08232 0 0Z" fill="#69D3F3"/>
<path d="M69.7308 6.52982C69.9941 6.7456 70.2386 6.97955 70.4747 7.22343C70.764 7.1245 71.004 6.97489 71.2564 6.80891C72.8323 5.80229 74.6102 5.52313 76.4457 5.87722C77.4971 6.10999 78.4679 6.79969 79.0445 7.6831C79.4679 8.43179 79.4978 9.22882 79.4913 10.0667C79.4911 10.13 79.4909 10.1933 79.4906 10.2586C79.4902 10.3947 79.4895 10.5309 79.4888 10.667C79.4876 10.8833 79.4869 11.0996 79.4863 11.3159C79.4847 11.9304 79.4823 12.545 79.4793 13.1595C79.4775 13.5367 79.4764 13.9139 79.4756 14.2912C79.4752 14.4339 79.4745 14.5767 79.4736 14.7194C79.4564 16.1223 79.4564 16.1223 79.822 17.4675C79.822 17.5325 79.822 17.5975 79.822 17.6645C78.4683 17.6645 77.1146 17.6645 75.7199 17.6645C75.7801 17.3121 75.8568 16.9692 75.9406 16.6218C76.1047 15.7976 76.0692 14.9364 76.0722 14.1008C76.0725 14.0348 76.0727 13.9688 76.073 13.9008C76.0744 13.5517 76.0754 13.2026 76.076 12.8535C76.0768 12.4961 76.0791 12.1387 76.0817 11.7813C76.0835 11.5035 76.0841 11.2257 76.0843 10.9479C76.0846 10.8162 76.0854 10.6846 76.0867 10.5529C76.0963 9.48581 76.0599 8.40782 75.3165 7.55177C74.6981 6.96204 74.0097 6.81027 73.1613 6.81353C72.2712 6.83032 71.5771 7.1474 70.8109 7.55177C70.8514 7.78497 70.9207 7.97926 71.0146 8.19635C71.2411 8.85406 71.185 9.55469 71.1834 10.2405C71.1841 10.3941 71.1849 10.5477 71.1858 10.7013C71.188 11.1043 71.1887 11.5074 71.189 11.9105C71.1895 12.554 71.192 13.1976 71.1952 13.8411C71.196 14.0639 71.196 14.2867 71.1958 14.5095C71.1969 15.1267 71.2047 15.7399 71.2702 16.3542C71.2748 16.4 71.2795 16.4457 71.2843 16.4929C71.3193 16.7766 71.3948 17.0191 71.5093 17.2796C71.5506 17.4019 71.5506 17.4019 71.5506 17.6645C70.197 17.6645 68.8433 17.6645 67.4486 17.6645C67.5051 17.3333 67.5799 17.0218 67.6692 16.6988C67.7798 16.2041 67.7952 15.7097 67.7967 15.205C67.7974 15.1061 67.7974 15.1061 67.798 15.0051C67.7994 14.7886 67.8002 14.5721 67.8008 14.3555C67.8011 14.281 67.8014 14.2066 67.8017 14.1299C67.8031 13.7359 67.804 13.3419 67.8047 12.9479C67.8054 12.5429 67.8077 12.1379 67.8104 11.733C67.8122 11.4197 67.8127 11.1065 67.813 10.7932C67.8133 10.644 67.8141 10.4948 67.8153 10.3456C67.824 9.23937 67.7868 8.22424 66.9905 7.35272C66.4151 6.81811 65.7396 6.67932 64.9604 6.6981C64.2844 6.76778 63.4394 7.00143 62.943 7.4861C62.9226 7.64171 62.9226 7.64171 62.926 7.82523C62.9254 7.93305 62.9254 7.93305 62.9248 8.04305C62.9251 8.12229 62.9254 8.20153 62.9256 8.28317C62.9254 8.36636 62.9252 8.44955 62.9249 8.53527C62.9243 8.76406 62.9245 8.99285 62.925 9.22164C62.9253 9.46156 62.925 9.70147 62.9248 9.94138C62.9245 10.3451 62.9249 10.7488 62.9255 11.1525C62.9262 11.6174 62.926 12.0823 62.9253 12.5473C62.9246 12.9472 62.9246 13.3472 62.9249 13.7472C62.9251 13.9857 62.9252 14.2242 62.9247 14.4626C62.9242 14.7296 62.9249 14.9966 62.9256 15.2636C62.9254 15.3414 62.9251 15.4192 62.9248 15.4993C62.9281 16.1488 62.9389 16.8277 63.2793 17.4019C63.2793 17.4669 63.2793 17.5319 63.2793 17.5989C61.9256 17.5989 60.5719 17.5989 59.1772 17.5989C59.2417 17.284 59.3183 16.9741 59.3979 16.6626C59.5237 16.0226 59.5244 15.3759 59.5273 14.7264C59.5279 14.6312 59.5286 14.536 59.5293 14.4408C59.5311 14.1845 59.5325 13.9283 59.5338 13.672C59.5353 13.4034 59.5372 13.1348 59.539 12.8662C59.5423 12.3585 59.5453 11.8508 59.5482 11.3432C59.5516 10.7648 59.5553 10.1864 59.559 9.60801C59.5666 8.41915 59.5738 7.23029 59.5807 6.04142C60.2199 6.17582 60.2199 6.17582 60.4849 6.26105C60.5352 6.27702 60.5854 6.293 60.6372 6.30947C60.6891 6.32623 60.7411 6.343 60.7946 6.36027C60.9078 6.39608 61.0211 6.43186 61.1343 6.46762C61.3105 6.52355 61.4865 6.57969 61.6625 6.63626C61.8339 6.69125 62.0056 6.74539 62.1773 6.79942C62.2299 6.81658 62.2825 6.83375 62.3367 6.85143C62.59 6.93051 62.7574 6.97972 63.0103 6.8951C63.1423 6.81714 63.2724 6.73598 63.4012 6.65295C65.2095 5.53859 67.9339 5.20864 69.7308 6.52982Z" fill="#FF68C3"/>
<path d="M14.5253 6.10707C14.5926 6.17274 14.5926 6.17274 14.5939 6.36C14.4952 8.11672 13.6947 9.4722 12.4407 10.7038C12.3086 10.8166 12.1739 10.9245 12.0372 11.0321C12.0974 11.0679 12.1575 11.1037 12.2195 11.1406C12.7427 11.4571 13.2128 11.7883 13.6511 12.2141C13.6972 12.2568 13.7432 12.2995 13.7906 12.3434C14.6697 13.2204 15.2106 14.6246 15.2044 15.8438C15.2042 15.9195 15.2039 15.9953 15.2037 16.0734C15.2032 16.1515 15.2026 16.2296 15.202 16.3101C15.2017 16.3898 15.2014 16.4694 15.2011 16.5515C15.2003 16.7474 15.1992 16.9433 15.1978 17.1392C13.389 18.1453 11.3102 18.673 9.23412 18.1883C8.28746 17.9161 7.4669 17.5141 6.72471 16.8765C6.67347 16.8327 6.62224 16.789 6.56946 16.7439C5.25221 15.5423 4.6388 13.7193 4.5757 11.9999C4.54186 10.265 5.1706 8.49843 6.38847 7.22342C6.42375 7.18304 6.45903 7.14266 6.49538 7.10106C8.42556 5.01479 12.0835 4.94715 14.5253 6.10707Z" fill="#FF68C3"/>
<path d="M56.9581 6.96069C57.36 7.34295 57.5808 7.6591 57.5927 8.22068C57.5836 8.71213 57.4531 9.08282 57.1117 9.44809C56.6682 9.84143 56.2454 9.88653 55.6578 9.8698C55.1764 9.83121 54.9248 9.65647 54.5918 9.32471C54.2665 8.94273 54.1123 8.52418 53.946 8.05966C53.907 7.95089 53.8677 7.84223 53.8281 7.73366C53.7892 7.62628 53.7511 7.51858 53.7142 7.41052C53.5347 6.91161 53.2506 6.46581 52.7888 6.17268C52.3114 5.99161 51.8078 5.9512 51.3143 6.10112C50.8799 6.29656 50.6834 6.51917 50.4856 6.94427C50.3546 7.49851 50.4251 7.97069 50.7041 8.47104C51.4833 9.5327 52.9938 10.0157 54.183 10.5018C54.7651 10.7404 55.3382 10.9873 55.8971 11.2745C55.9657 11.3095 55.9657 11.3095 56.0356 11.3453C56.9665 11.8341 57.8174 12.5046 58.1401 13.5182C58.3122 14.3708 58.0872 15.22 57.6093 15.9391C56.7708 17.0448 55.4124 17.5077 54.0733 17.7363C53.5772 17.8079 53.0875 17.8179 52.587 17.8165C52.4368 17.8163 52.2867 17.8179 52.1365 17.8195C50.4223 17.8269 48.7354 17.4129 47.476 16.2239C46.9507 15.6743 46.7098 15.0654 46.6693 14.3154C46.6949 13.8422 46.9748 13.4136 47.3218 13.0934C47.7685 12.7594 48.2705 12.6831 48.8212 12.7394C49.2019 12.8379 49.5205 13.0476 49.7451 13.3635C50.0629 13.9666 50.2551 14.5891 50.434 15.244C50.6396 15.9743 50.9129 16.6399 51.5783 17.0734C52.1786 17.394 52.8198 17.4987 53.4972 17.3692C53.9752 17.2275 54.3347 17.0186 54.5918 16.5933C54.8884 16.0122 54.9515 15.4603 54.7626 14.8256C54.1894 13.5394 52.2583 12.851 51.0404 12.3167C50 11.8572 49.0838 11.3778 48.2832 10.5724C48.2191 10.5084 48.2191 10.5084 48.1537 10.4431C47.6809 9.93899 47.4816 9.34299 47.4595 8.66393C47.5049 7.96453 47.7483 7.32028 48.2832 6.82936C50.4391 5.12151 54.8329 5.22237 56.9581 6.96069Z" fill="#FF68C3"/>
<path d="M86.1012 5.68844C86.1468 5.68849 86.1924 5.68855 86.2393 5.68861C87.6542 5.69449 88.8656 6.04477 89.909 7.02641C91.2547 8.41832 91.6584 10.3463 91.674 12.2003C91.6751 12.2888 91.6762 12.3773 91.6773 12.4659C91.682 12.8386 91.686 13.2114 91.6895 13.5842C91.7014 14.9226 91.7015 14.9226 91.7859 16.2583C91.7911 16.3152 91.7962 16.372 91.8015 16.4307C91.8342 16.7471 91.8992 17.0321 91.9937 17.3362C92.0021 17.5291 92.0021 17.5291 91.9937 17.6645C90.823 17.6457 89.8646 17.6053 88.9886 16.7698C88.6894 16.3963 88.5097 15.8952 88.4296 15.4318C88.3111 15.6054 88.2175 15.7798 88.1229 15.9664C87.7126 16.7605 87.2166 17.2804 86.345 17.5988C85.1574 17.9659 83.6527 17.9721 82.5329 17.4223C81.7535 16.9755 81.1949 16.3565 80.9321 15.5021C80.9152 15.4348 80.9152 15.4348 80.898 15.3661C80.8857 15.3187 80.8735 15.2712 80.8609 15.2222C80.6957 14.2132 80.8462 13.3005 81.4386 12.4499C82.3885 11.2247 83.9026 10.6959 85.3279 10.1825C85.9446 9.96024 86.5591 9.73829 87.1561 9.46841C87.2048 9.44712 87.2535 9.42584 87.3036 9.40391C87.6753 9.22958 88.0395 8.97026 88.2279 8.60242C88.2347 7.91131 87.9604 7.21397 87.4882 6.69807C86.9717 6.34564 86.3729 6.29673 85.7626 6.4C85.2224 6.53862 84.8269 6.78746 84.5209 7.24803C84.3552 7.53712 84.24 7.8361 84.1258 8.14685C83.945 8.63854 83.7613 9.13113 83.2894 9.42326C82.8503 9.60381 82.4816 9.6304 82.0412 9.45609C81.6663 9.22378 81.4952 8.95124 81.3687 8.53675C81.3119 8.03772 81.4415 7.58399 81.6881 7.14543C82.4835 6.17455 83.59 5.90349 84.8111 5.73999C85.2411 5.69478 85.669 5.68783 86.1012 5.68844ZM88.2951 9.12776C88.2452 9.17651 88.1953 9.22527 88.1438 9.27551C87.8733 9.53969 87.6107 9.7373 87.2651 9.89832C87.1975 9.93033 87.1299 9.96235 87.0602 9.99533C86.9892 10.0287 86.9182 10.062 86.8451 10.0963C85.6331 10.6783 84.3992 11.3615 83.8989 12.6615C83.5255 13.7346 83.6296 15.1358 84.1258 16.1542C84.3947 16.5994 84.7276 16.9004 85.2186 17.094C85.7406 17.1875 86.2803 17.2173 86.7484 16.9422C87.6682 16.2814 88.1186 15.3372 88.334 14.2611C88.3949 13.8141 88.3786 13.3614 88.3755 12.9113C88.3753 12.8018 88.3751 12.6924 88.3749 12.5829C88.3744 12.2968 88.3731 12.0107 88.3716 11.7246C88.3702 11.4319 88.3696 11.1391 88.3689 10.8464C88.3675 10.2735 88.3652 9.70063 88.3624 9.12776C88.3402 9.12776 88.318 9.12776 88.2951 9.12776Z" fill="#FF68C3"/>
<path d="M43.6261 6.90791C44.8994 7.99418 45.6412 9.38886 45.772 11.0379C45.8833 12.8021 45.5259 14.4673 44.3157 15.8258C44.263 15.8935 44.2103 15.9613 44.156 16.031C43.0914 17.1696 41.5575 17.7078 40.0133 17.7876C38.3434 17.8472 36.8157 17.2782 35.5862 16.1826C34.4716 15.143 33.859 13.6696 33.8091 12.168C33.7759 10.2753 34.1693 8.63824 35.5358 7.23573C37.7031 5.21056 41.295 5.08815 43.6261 6.90791ZM38.5324 6.63241C38.5025 6.66162 38.4726 6.69082 38.4418 6.72091C37.0911 8.09614 37.0051 10.3993 37.0383 12.1808C37.0869 13.8327 37.4075 15.6269 38.5923 16.8796C39.0127 17.2531 39.4436 17.3802 40.0082 17.3623C40.5842 17.289 40.9798 16.9774 41.3455 16.552C42.8354 14.4994 42.7399 11.5946 42.3382 9.2298C42.1506 8.19252 41.6613 6.95677 40.7768 6.29997C40.009 5.86957 39.1215 5.94531 38.5324 6.63241Z" fill="#FF68C3"/>
<path d="M31.7531 7.08799C32.1252 7.44034 32.2881 7.79781 32.3121 8.30284C32.2893 8.85117 32.0816 9.3378 31.6733 9.71879C31.2194 10.0424 30.778 10.1614 30.2201 10.0905C29.7648 9.98741 29.504 9.77002 29.2524 9.39045C28.9658 8.91482 28.8373 8.39865 28.6905 7.86984C28.5076 7.22988 28.3008 6.60847 27.6889 6.25074C27.1915 6.02303 26.5831 6.01665 26.0542 6.1507C25.2343 6.50967 24.8271 7.39062 24.5036 8.1538C23.8645 9.81007 23.7519 11.8171 24.4529 13.4646C24.7311 14.0506 25.0917 14.5113 25.5538 14.9722C25.6061 15.0268 25.6061 15.0268 25.6594 15.0825C25.9208 15.3297 26.233 15.4845 26.5541 15.6453C26.5985 15.6677 26.6429 15.6901 26.6886 15.7133C27.5362 16.1204 28.6217 16.1698 29.5256 15.9161C29.6601 15.8677 29.7933 15.8158 29.9249 15.7602C29.9873 15.7338 30.0497 15.7075 30.114 15.6804C31.2521 15.1357 31.8998 14.1564 32.413 13.0678C32.4352 13.0028 32.4574 12.9378 32.4802 12.8708C32.5912 12.9142 32.7022 12.9575 32.8165 13.0021C32.662 14.3263 31.5638 15.7958 30.5427 16.6344C29.2832 17.5539 27.8306 17.9984 26.2557 17.8164C25.036 17.6307 23.9184 17.1673 22.9984 16.3512C22.9085 16.2725 22.9085 16.2725 22.8167 16.1921C22.1594 15.5862 21.6729 14.8946 21.3215 14.0816C21.3033 14.0399 21.2851 13.9982 21.2664 13.9552C20.9635 13.205 20.8777 12.4361 20.8844 11.6355C20.8849 11.5493 20.8854 11.4631 20.8859 11.3743C20.9141 9.74725 21.5265 8.34491 22.7196 7.19775C25.0124 5.08995 29.3381 5.16228 31.7531 7.08799Z" fill="#FF68C3"/>
</svg>
